<svg xmlns="http://www.w3.org/2000/svg" width="119" height="19" fill="none"><g clip-path="url(#a)"><path fill="#FFC54F" fill-rule="evenodd" d="m9.813 14.055-5.768 3.78 1.812-6.654L.48 6.864l6.888-.333L9.812.083l2.445 6.448 6.888.333-5.377 4.317 1.812 6.653-5.768-3.779Z" clip-rule="evenodd"/></g><g clip-path="url(#b)"><path fill="#FFC54F" fill-rule="evenodd" d="m34.438 14.055-5.768 3.78 1.812-6.654-5.377-4.317 6.888-.333L34.438.083l2.444 6.448 6.888.333-5.377 4.317 1.812 6.653-5.767-3.779Z" clip-rule="evenodd"/></g><g clip-path="url(#c)"><path fill="#FFC54F" fill-rule="evenodd" d="m59.063 14.055-5.768 3.78 1.812-6.654-5.377-4.317 6.888-.333L59.062.083l2.445 6.448 6.888.333-5.377 4.317 1.812 6.653-5.767-3.779Z" clip-rule="evenodd"/></g><g clip-path="url(#d)"><path fill="#FFC54F" fill-rule="evenodd" d="m83.688 14.055-5.768 3.78 1.812-6.654-5.377-4.317 6.888-.333L83.688.083l2.444 6.448 6.888.333-5.377 4.317 1.812 6.653-5.767-3.779Z" clip-rule="evenodd"/></g><g clip-path="url(#e)"><path fill="#FFC54F" fill-rule="evenodd" d="m108.312 14.055-5.767 3.78 1.812-6.654-5.377-4.317 6.888-.333 2.444-6.448 2.445 6.448 6.888.333-5.377 4.317 1.812 6.653-5.768-3.779Z" clip-rule="evenodd"/></g><defs><clipPath id="a"><path fill="#fff" d="M0 .083h19.625v17.99H0z"/></clipPath><clipPath id="b"><path fill="#fff" d="M24.625.083H44.25v17.99H24.625z"/></clipPath><clipPath id="c"><path fill="#fff" d="M49.25.083h19.625v17.99H49.25z"/></clipPath><clipPath id="d"><path fill="#fff" d="M73.875.083H93.5v17.99H73.875z"/></clipPath><clipPath id="e"><path fill="#fff" d="M98.5.083h19.625v17.99H98.5z"/></clipPath></defs></svg>