<svg width="220" height="65" viewBox="0 0 220 65" fill="none" xmlns="http://www.w3.org/2000/svg">
<path d="M38.8756 28.2956C41.0298 26.3337 43.9549 25.1886 46.9195 25.0462C47.9342 25.0462 48.9518 25.0519 49.9665 25.0432C49.9147 26.0809 49.9665 27.1214 49.936 28.159C49.7928 30.4784 48.8939 32.7454 47.3796 34.5649C45.4113 37.0122 42.4009 38.6543 39.2047 39.0787C37.8092 39.2938 36.3923 39.1572 34.9877 39.195C35.0121 38.0527 34.9359 36.9076 35.0304 35.7682C35.3046 32.9431 36.7032 30.2371 38.8756 28.2956Z" fill="#81818B"/>
<path d="M50.906 25.0432C51.9938 25.0549 53.0816 25.0374 54.1724 25.049C56.8872 25.2321 59.5655 26.2261 61.6098 27.9498C63.8645 29.7954 65.4096 32.4345 65.8054 35.2538C65.9792 36.5617 65.8695 37.8841 65.9367 39.1978C64.9859 39.195 64.0383 39.1921 63.0875 39.1978C60.7507 39.1368 58.4533 38.416 56.4972 37.2011C55.5953 36.5849 54.669 35.9601 53.9926 35.1055C52.5088 33.5244 51.5002 31.5392 51.1193 29.4466C50.8329 27.9933 50.9487 26.511 50.906 25.0432Z" fill="#81818B"/>
<path d="M34.9898 40.029C35.9557 40.0813 36.9246 39.9854 37.8874 40.0871C42.0099 40.1714 46.0106 42.3803 48.1464 45.7431C49.3714 47.6265 50.0295 49.8589 49.9442 52.0762C49.9411 52.8034 49.9533 53.5268 49.932 54.2508C48.4024 54.2067 46.8576 54.3259 45.3432 54.044C41.9795 53.5037 38.8869 51.5939 37.0251 48.8676C35.6144 46.8854 34.9106 44.4643 34.9837 42.0722C34.9837 41.3892 34.9837 40.7091 34.9898 40.029Z" fill="#81818B"/>
<path d="M60.7884 40.337C62.446 39.9853 64.1548 40.0434 65.8401 40.0434L65.9136 40.1132C65.8768 41.6333 66.0018 43.1708 65.6821 44.6735C65.0085 48.045 62.6686 51.0559 59.5209 52.7097C57.5617 53.7506 55.3131 54.2619 53.0736 54.2388C52.3576 54.242 51.6385 54.2273 50.9225 54.2472C50.9225 52.9888 50.8676 51.7248 51.0169 50.4717C51.3643 47.4404 53.0827 44.6182 55.5538 42.7116C57.0833 41.5606 58.8811 40.7265 60.7884 40.337Z" fill="#81818B"/>
<path d="M78.4217 48.6211C78.4217 49.1328 78.2359 49.5656 77.8652 49.92C77.514 50.2547 77.0704 50.422 76.5344 50.422C76.0183 50.422 75.5852 50.2547 75.2345 49.92C74.8838 49.5656 74.7084 49.1328 74.7084 48.6211V30.3775C74.7084 29.8658 74.8838 29.4427 75.2345 29.1081C75.6056 28.7539 76.0598 28.5767 76.5963 28.5767C77.1323 28.5767 77.5654 28.7539 77.8957 29.1081C78.2464 29.4427 78.4217 29.8658 78.4217 30.3775V48.6211Z" fill="#81818B"/>
<path d="M93.3275 34.6285C93.8636 34.6285 94.3072 34.8056 94.6584 35.1598C95.0086 35.4944 95.1839 35.9175 95.1839 36.4292V43.9274C95.1839 46.0135 94.5754 47.6666 93.3585 48.8868C92.141 50.107 90.3875 50.7168 88.0969 50.7168C85.8074 50.7168 84.0534 50.107 82.8365 48.8868C81.64 47.6666 81.0415 46.0135 81.0415 43.9274V36.4292C81.0415 35.9175 81.2168 35.4944 81.5675 35.1598C81.9182 34.8056 82.3618 34.6285 82.8984 34.6285C83.4349 34.6285 83.878 34.8056 84.2287 35.1598C84.58 35.4944 84.7553 35.9175 84.7553 36.4292V43.9274C84.7553 45.1278 85.0341 46.0233 85.5906 46.6137C86.1476 47.1845 86.9834 47.4698 88.0969 47.4698C89.2325 47.4698 90.0778 47.1845 90.6353 46.6137C91.1918 46.0233 91.4706 45.1278 91.4706 43.9274V36.4292C91.4706 35.9175 91.646 35.4944 91.9967 35.1598C92.3474 34.8056 92.791 34.6285 93.3275 34.6285Z" fill="#81818B"/>
<path d="M106.353 34.3333C108.004 34.3333 109.221 34.717 110.005 35.4845C110.789 36.2324 111.305 37.2065 111.552 38.407L111.026 38.1413L111.274 37.669C111.521 37.2163 111.903 36.7342 112.419 36.2225C112.935 35.6912 113.554 35.2484 114.276 34.8941C115.018 34.5202 115.844 34.3333 116.751 34.3333C118.237 34.3333 119.361 34.6383 120.125 35.2483C120.909 35.8584 121.445 36.6752 121.734 37.6986C122.023 38.7022 122.167 39.824 122.167 41.0639V48.6211C122.167 49.1328 121.992 49.5656 121.641 49.92C121.29 50.2547 120.847 50.422 120.31 50.422C119.774 50.422 119.33 50.2547 118.98 49.92C118.629 49.5656 118.453 49.1328 118.453 48.6211V41.0639C118.453 40.4144 118.371 39.8339 118.206 39.3221C118.041 38.7908 117.742 38.3677 117.308 38.0528C116.875 37.7379 116.256 37.5804 115.452 37.5804C114.668 37.5804 113.997 37.7379 113.44 38.0528C112.883 38.3677 112.46 38.7908 112.171 39.3221C111.903 39.8339 111.769 40.4144 111.769 41.0639V48.6211C111.769 49.1328 111.593 49.5656 111.243 49.92C110.892 50.2547 110.448 50.422 109.912 50.422C109.376 50.422 108.932 50.2547 108.582 49.92C108.231 49.5656 108.055 49.1328 108.055 48.6211V41.0639C108.055 40.4144 107.973 39.8339 107.808 39.3221C107.643 38.7908 107.343 38.3677 106.91 38.0528C106.477 37.7379 105.858 37.5804 105.053 37.5804C104.27 37.5804 103.599 37.7379 103.042 38.0528C102.485 38.3677 102.062 38.7908 101.773 39.3221C101.505 39.8339 101.371 40.4144 101.371 41.0639V48.6211C101.371 49.1328 101.196 49.5656 100.845 49.92C100.494 50.2547 100.051 50.422 99.5141 50.422C98.9776 50.422 98.5345 50.2547 98.1832 49.92C97.8325 49.5656 97.6572 49.1328 97.6572 48.6211V36.4292C97.6572 35.9175 97.8325 35.4943 98.1832 35.1598C98.5345 34.8055 98.9776 34.6285 99.5141 34.6285C100.051 34.6285 100.494 34.8055 100.845 35.1598C101.196 35.4943 101.371 35.9175 101.371 36.4292V37.6986L100.906 37.61C101.092 37.2754 101.351 36.9211 101.68 36.5472C102.01 36.1536 102.413 35.7895 102.887 35.455C103.362 35.1204 103.888 34.8547 104.465 34.6579C105.043 34.4415 105.673 34.3333 106.353 34.3333Z" fill="#81818B"/>
<path d="M128.136 48.6211C128.136 49.1328 127.961 49.5656 127.609 49.92C127.259 50.2547 126.816 50.422 126.279 50.422C125.743 50.422 125.299 50.2547 124.948 49.92C124.598 49.5656 124.423 49.1328 124.423 48.6211V36.4292C124.423 35.9175 124.598 35.4943 124.948 35.1598C125.299 34.8055 125.743 34.6285 126.279 34.6285C126.816 34.6285 127.259 34.8055 127.609 35.1598C127.961 35.4943 128.136 35.9175 128.136 36.4292V48.6211ZM126.248 32.7096C125.547 32.7096 125.052 32.6014 124.762 32.3849C124.474 32.1684 124.33 31.7846 124.33 31.2336V30.6727C124.33 30.102 124.485 29.7182 124.793 29.5214C125.124 29.3049 125.619 29.1967 126.279 29.1967C127.002 29.1967 127.507 29.3049 127.795 29.5214C128.085 29.7379 128.229 30.1217 128.229 30.6727V31.2336C128.229 31.8043 128.074 32.1979 127.764 32.4144C127.456 32.6112 126.95 32.7096 126.248 32.7096Z" fill="#81818B"/>
<path d="M139.256 34.3333C140.783 34.3333 141.938 34.6383 142.722 35.2483C143.527 35.8584 144.073 36.6752 144.362 37.6986C144.672 38.7022 144.826 39.824 144.826 41.0639V48.6211C144.826 49.1328 144.651 49.5656 144.3 49.92C143.95 50.2547 143.506 50.422 142.969 50.422C142.433 50.422 141.99 50.2547 141.639 49.92C141.288 49.5656 141.112 49.1328 141.112 48.6211V41.0639C141.112 40.4144 141.02 39.8339 140.835 39.3221C140.669 38.7908 140.36 38.3677 139.906 38.0528C139.452 37.7379 138.802 37.5804 137.956 37.5804C137.131 37.5804 136.429 37.7379 135.852 38.0528C135.295 38.3677 134.862 38.7908 134.552 39.3221C134.263 39.8339 134.118 40.4144 134.118 41.0639V48.6211C134.118 49.1328 133.944 49.5656 133.593 49.92C133.242 50.2547 132.798 50.422 132.262 50.422C131.725 50.422 131.282 50.2547 130.932 49.92C130.58 49.5656 130.405 49.1328 130.405 48.6211V36.4292C130.405 35.9175 130.58 35.4943 130.932 35.1598C131.282 34.8055 131.725 34.6285 132.262 34.6285C132.798 34.6285 133.242 34.8055 133.593 35.1598C133.944 35.4943 134.118 35.9175 134.118 36.4292V37.6986L133.655 37.61C133.841 37.2754 134.108 36.9211 134.459 36.5472C134.81 36.1536 135.223 35.7895 135.697 35.455C136.172 35.1204 136.708 34.8547 137.306 34.6579C137.905 34.4415 138.555 34.3333 139.256 34.3333Z" fill="#81818B"/>
<path d="M163.2 42.5398C163.2 44.1536 162.818 45.5805 162.055 46.8203C161.312 48.0405 160.301 48.995 159.022 49.6837C157.763 50.3728 156.35 50.7168 154.782 50.7168C153.214 50.7168 151.79 50.3728 150.512 49.6837C149.253 48.995 148.243 48.0405 147.479 46.8203C146.736 45.5805 146.365 44.1536 146.365 42.5398C146.365 40.9261 146.736 39.5091 147.479 38.2889C148.243 37.0491 149.253 36.0848 150.512 35.396C151.79 34.6875 153.214 34.3333 154.782 34.3333C156.35 34.3333 157.763 34.6875 159.022 35.396C160.301 36.0848 161.312 37.0491 162.055 38.2889C162.818 39.5091 163.2 40.9261 163.2 42.5398ZM159.486 42.5398C159.486 41.5362 159.27 40.6703 158.836 39.9421C158.423 39.1942 157.856 38.6137 157.134 38.2004C156.433 37.7871 155.649 37.5804 154.782 37.5804C153.916 37.5804 153.121 37.7871 152.399 38.2004C151.698 38.6137 151.13 39.1942 150.697 39.9421C150.285 40.6703 150.078 41.5362 150.078 42.5398C150.078 43.5239 150.285 44.3898 150.697 45.1377C151.13 45.8658 151.698 46.4365 152.399 46.8498C153.121 47.2632 153.916 47.4697 154.782 47.4697C155.649 47.4697 156.433 47.2632 157.134 46.8498C157.856 46.4365 158.423 45.8658 158.836 45.1377C159.27 44.3898 159.486 43.5239 159.486 42.5398Z" fill="#81818B"/>
<path d="M177.041 34.6285C177.577 34.6285 178.021 34.8056 178.372 35.1598C178.722 35.4944 178.898 35.9175 178.898 36.4292V43.9274C178.898 46.0135 178.289 47.6666 177.072 48.8868C175.854 50.107 174.101 50.7168 171.811 50.7168C169.521 50.7168 167.767 50.107 166.55 48.8868C165.353 47.6666 164.755 46.0135 164.755 43.9274V36.4292C164.755 35.9175 164.93 35.4944 165.281 35.1598C165.632 34.8056 166.075 34.6285 166.612 34.6285C167.148 34.6285 167.592 34.8056 167.943 35.1598C168.293 35.4944 168.469 35.9175 168.469 36.4292V43.9274C168.469 45.1278 168.747 46.0233 169.304 46.6137C169.861 47.1845 170.697 47.4698 171.811 47.4698C172.945 47.4698 173.792 47.1845 174.348 46.6137C174.906 46.0233 175.184 45.1278 175.184 43.9274V36.4292C175.184 35.9175 175.36 35.4944 175.71 35.1598C176.061 34.8056 176.505 34.6285 177.041 34.6285Z" fill="#81818B"/>
<path d="M180.411 47.9716C180.205 47.6961 180.112 47.3419 180.133 46.9089C180.154 46.4759 180.422 46.102 180.938 45.7871C181.268 45.5903 181.618 45.5116 181.99 45.551C182.361 45.5707 182.722 45.7477 183.073 46.0823C183.672 46.653 184.301 47.0958 184.961 47.4107C185.621 47.7256 186.446 47.883 187.436 47.883C187.746 47.8633 188.086 47.824 188.458 47.765C188.829 47.6863 189.149 47.5288 189.417 47.2927C189.705 47.0368 189.85 46.653 189.85 46.1413C189.85 45.7084 189.695 45.364 189.386 45.1081C189.076 44.8523 188.664 44.6359 188.148 44.4587C187.653 44.2816 187.096 44.1143 186.477 43.9569C185.837 43.7797 185.177 43.583 184.496 43.3665C183.836 43.15 183.227 42.8745 182.67 42.5398C182.114 42.1856 181.66 41.7232 181.309 41.1524C180.958 40.5817 180.783 39.8633 180.783 38.9975C180.783 38.0134 181.071 37.177 181.649 36.4882C182.227 35.7994 182.97 35.2681 183.877 34.8941C184.806 34.5202 185.775 34.3333 186.786 34.3333C187.426 34.3333 188.096 34.4119 188.798 34.5694C189.499 34.7072 190.17 34.9433 190.81 35.2779C191.449 35.5927 191.986 36.0159 192.419 36.5472C192.645 36.8424 192.78 37.1967 192.821 37.61C192.862 38.0233 192.666 38.3972 192.233 38.7318C191.924 38.9679 191.563 39.0762 191.15 39.0565C190.738 39.0171 190.397 38.8794 190.129 38.6432C189.778 38.2102 189.304 37.8658 188.705 37.61C188.127 37.3542 187.457 37.2262 186.694 37.2262C186.384 37.2262 186.044 37.2656 185.672 37.3443C185.322 37.4033 185.012 37.551 184.744 37.7871C184.476 38.0036 184.342 38.3578 184.342 38.8498C184.342 39.3025 184.496 39.6666 184.806 39.9421C185.115 40.1979 185.528 40.4144 186.044 40.5916C186.58 40.749 187.148 40.9065 187.746 41.0639C188.365 41.2213 188.994 41.4083 189.634 41.6247C190.274 41.8413 190.861 42.1266 191.398 42.4808C191.934 42.8351 192.367 43.2976 192.697 43.8683C193.028 44.4193 193.192 45.1278 193.192 45.9938C193.192 46.9975 192.883 47.8536 192.264 48.562C191.645 49.2706 190.871 49.8117 189.943 50.1857C189.015 50.5401 188.065 50.7168 187.096 50.7168C185.879 50.7168 184.662 50.5204 183.444 50.1267C182.227 49.7132 181.216 48.995 180.411 47.9716Z" fill="#81818B"/>
<rect y="0.265625" width="115.188" height="64" fill="url(#paint0_linear_38_207)"/>
<defs>
<linearGradient id="paint0_linear_38_207" x1="0" y1="32.2656" x2="115.188" y2="32.2656" gradientUnits="userSpaceOnUse">
<stop offset="0.08" stop-color="#0D0D11"/>
<stop offset="1" stop-opacity="0"/>
</linearGradient>
</defs>
</svg>
