<svg xmlns="http://www.w3.org/2000/svg" width="210" height="79" fill="none"><path fill="#81818B" d="m22.994 45.129 11.66-5.054 6.71 3.79 1.356 12.433-8.27-.066 1.22-8.644-1.423-.798-6.982 5.32-4.271-6.981ZM42.11 43.333l10.304 7.38 4.068-7.114-8.27-3.258v-1.596l8.27-3.324-4.068-7.048-10.303 7.38v7.58ZM41.364 35.155l1.356-12.433-8.27.133 1.22 8.643-1.423.798-7.05-5.319-4.203 6.915 11.66 5.053 6.71-3.79ZM84.072 38.02v11.648h4.451V34.824h-6.481v3.196h2.03ZM83.933 32.738c.408.415 1.03.623 1.864.623.835 0 1.447-.208 1.836-.623.408-.434.612-.975.612-1.625 0-.668-.204-1.21-.612-1.625-.389-.434-1-.65-1.836-.65-.834 0-1.456.216-1.864.65-.389.415-.584.957-.584 1.625 0 .65.195 1.191.584 1.625ZM68.578 49.343c1.26.56 2.809.84 4.645.84 1.725 0 3.208-.262 4.451-.786 1.243-.523 2.198-1.255 2.865-2.194.687-.957 1.03-2.068 1.03-3.332 0-1.228-.324-2.266-.974-3.115-.63-.867-1.511-1.544-2.642-2.031-1.132-.506-2.44-.822-3.923-.948l-1.558-.136c-.927-.072-1.595-.316-2.003-.731-.408-.416-.612-.903-.612-1.463 0-.434.112-.83.333-1.192.224-.38.557-.677 1.002-.894.464-.216 1.03-.325 1.697-.325.705 0 1.29.126 1.753.38.102.053.199.11.29.17l.022.016a2.473 2.473 0 0 1 .773.816c.24.397.362.84.362 1.327h4.45c0-1.3-.306-2.43-.918-3.386-.611-.975-1.492-1.725-2.642-2.249-1.132-.541-2.495-.812-4.09-.812-1.52 0-2.837.253-3.95.758-1.113.488-1.984 1.192-2.615 2.113-.612.921-.918 2.014-.918 3.278 0 1.752.603 3.16 1.808 4.226 1.206 1.065 2.82 1.68 4.84 1.842l1.531.135c1.242.108 2.142.352 2.699.731.555.362.834.858.834 1.49 0 .29-.049.563-.147.818a2.236 2.236 0 0 1-.298.537c-.298.379-.733.677-1.308.894-.575.216-1.288.325-2.142.325-.946 0-1.715-.127-2.309-.38-.593-.27-1.038-.623-1.336-1.056a2.562 2.562 0 0 1-.416-1.409h-4.424c0 1.283.325 2.42.974 3.413.65.976 1.604 1.753 2.866 2.33ZM98.455 49.858c-1.54 0-2.782-.18-3.728-.542-.946-.38-1.641-1.002-2.087-1.87-.426-.884-.64-2.076-.64-3.575v-5.878h-2.308v-3.17H92v-4.008h4.144v4.009h4.452v3.17h-4.452v6.04c0 .704.186 1.246.557 1.625.39.361.936.542 1.642.542h2.253v3.657h-2.142Z"/><path fill="#81818B" fill-rule="evenodd" d="M105.956 49.533c1.001.433 2.151.65 3.449.65 1.28 0 2.412-.217 3.394-.65.983-.434 1.8-1.039 2.448-1.815a6.19 6.19 0 0 0 1.308-2.655h-4.09c-.185.452-.537.83-1.056 1.138-.52.307-1.188.46-2.004.46-.505 0-.957-.058-1.355-.174a3.075 3.075 0 0 1-.815-.367 3.153 3.153 0 0 1-1.224-1.517 5.908 5.908 0 0 1-.313-1.219h11.135V41.92c0-1.354-.297-2.6-.89-3.738a7.017 7.017 0 0 0-2.587-2.79c-1.113-.723-2.485-1.084-4.118-1.084-1.242 0-2.355.217-3.338.65-.964.416-1.771.984-2.42 1.707a7.87 7.87 0 0 0-1.503 2.465c-.333.903-.5 1.85-.5 2.844v.542c0 .957.167 1.896.5 2.817a8.3 8.3 0 0 0 1.503 2.465c.667.723 1.492 1.3 2.476 1.734Zm-.181-8.828a4.625 4.625 0 0 1 .264-.843c.278-.668.687-1.173 1.224-1.517.201-.128.419-.232.653-.312a4.071 4.071 0 0 1 1.322-.202c.761 0 1.391.171 1.892.514.519.325.909.804 1.169 1.436.021.051.04.103.06.156a4.742 4.742 0 0 1 .189.664c.022.104.041.21.058.318h-6.874a4.63 4.63 0 0 1 .043-.214Z" clip-rule="evenodd"/><path fill="#81818B" d="M118.67 49.668V34.824h3.533v3.739a7.32 7.32 0 0 1 .334-1.138c.389-1.012.973-1.77 1.752-2.276.779-.524 1.734-.785 2.866-.785h.194c1.151 0 2.105.261 2.866.785.779.506 1.363 1.264 1.752 2.275l.031.077.026.07.054-.147c.408-1.011 1.002-1.77 1.781-2.275.779-.524 1.734-.785 2.866-.785h.194c1.15 0 2.114.261 2.893.785.798.506 1.401 1.264 1.808 2.275.408 1.012.613 2.276.613 3.793v8.451h-4.451v-8.695c0-.813-.223-1.472-.668-1.977-.427-.506-1.039-.759-1.836-.759-.798 0-1.428.262-1.892.786-.463.505-.695 1.182-.695 2.031v8.614h-4.479v-8.695c0-.813-.223-1.472-.668-1.977-.426-.506-1.03-.759-1.808-.759-.816 0-1.456.262-1.919.786-.464.505-.696 1.182-.696 2.031v8.614h-4.451Z"/><path fill="#81818B" fill-rule="evenodd" d="M154.123 46.808v2.86h3.532v-9.102c0-1.372-.278-2.492-.834-3.358-.557-.885-1.372-1.544-2.448-1.978-1.057-.433-2.365-.65-3.923-.65a53.987 53.987 0 0 0-1.724.027 53.86 53.86 0 0 0-1.781.081l-.439.03a73.162 73.162 0 0 0-1.063.079v3.657a163.342 163.342 0 0 1 2.506-.137 83.375 83.375 0 0 1 3.086-.08c.815 0 1.409.19 1.78.569.371.38.556.948.556 1.707v.053h-2.754c-1.353 0-2.55.172-3.589.515-1.038.325-1.845.84-2.419 1.544-.576.687-.863 1.571-.863 2.655 0 .993.232 1.851.695 2.574.464.703 1.104 1.245 1.92 1.624.835.38 1.799.57 2.893.57 1.057 0 1.948-.19 2.671-.57a4.109 4.109 0 0 0 1.725-1.624 4.864 4.864 0 0 0 .437-.94l.036-.106Zm-.752-2.639v-1.192h-2.782c-.779 0-1.381.19-1.808.57-.408.36-.612.857-.612 1.49 0 .297.051.567.152.81.103.245.256.462.46.652.427.361 1.029.542 1.808.542.148 0 .292-.008.43-.021.113-.012.224-.029.33-.05.203-.04.396-.098.576-.173.408-.18.742-.479 1.001-.894.26-.416.409-.994.445-1.734Z" clip-rule="evenodd"/><path fill="#81818B" d="M160.319 49.668V34.824h3.533v4.9c.17-1.4.596-2.527 1.28-3.383.928-1.138 2.262-1.707 4.006-1.707h.585v3.738h-1.113c-1.224 0-2.17.325-2.838.975-.668.633-1.002 1.554-1.002 2.763v7.558h-4.451ZM175.367 42.734h1.474l4.813 6.934h5.007l-6.102-8.516 5.017-6.328h-4.673l-5.536 7.058V29.894h-4.451v19.774h4.451v-6.934Z"/></svg>