<svg xmlns="http://www.w3.org/2000/svg" width="20" height="18" fill="none"><path fill="#1E1E1E" d="M0 0h20v18H0z"/><path fill="#0D0D11" d="M-280-6925h1512V355.19H-280z"/><path fill="#75757F" d="M17.666 4.878c-.184-.74-.727-1.322-1.415-1.52C15.003 3 10 3 10 3s-5.003 0-6.251.359c-.688.198-1.23.78-1.415 1.519C2 6.218 2 9.012 2 9.012s0 2.795.334 4.135A2.05 2.05 0 0 0 3.75 14.64C4.997 15 10 15 10 15s5.003 0 6.251-.359a2.05 2.05 0 0 0 1.415-1.494C18 11.807 18 9.012 18 9.012s0-2.795-.334-4.134ZM8.364 11.55V6.475l4.181 2.537-4.181 2.538Z"/><rect width="35" height="35" x="-7.5" y="-8.984" stroke="#81818B" stroke-opacity=".9" rx="17.5"/></svg>