<svg xmlns="http://www.w3.org/2000/svg" width="123" height="123" fill="none"><rect width="10" height="10" x=".813" y=".438" fill="#81818B" fill-opacity=".2" rx="5"/><rect width="10" height="10" x="16.813" y=".438" fill="#81818B" fill-opacity=".2" rx="5"/><rect width="10" height="10" x="32.813" y=".438" fill="#81818B" fill-opacity=".2" rx="5"/><rect width="10" height="10" x="48.813" y=".438" fill="#81818B" fill-opacity=".2" rx="5"/><rect width="10" height="10" x="64.813" y=".438" fill="#81818B" fill-opacity=".2" rx="5"/><rect width="10" height="10" x="80.813" y=".438" fill="#81818B" fill-opacity=".2" rx="5"/><rect width="10" height="10" x="96.813" y=".438" fill="#81818B" fill-opacity=".2" rx="5"/><rect width="10" height="10" x="112.812" y=".438" fill="#81818B" fill-opacity=".2" rx="5"/><rect width="10" height="10" x=".813" y="16.438" fill="#81818B" fill-opacity=".2" rx="5"/><rect width="10" height="10" x="16.813" y="16.438" fill="#81818B" fill-opacity=".2" rx="5"/><rect width="10" height="10" x="32.813" y="16.438" fill="#81818B" fill-opacity=".2" rx="5"/><rect width="10" height="10" x="48.813" y="16.438" fill="#81818B" fill-opacity=".2" rx="5"/><rect width="10" height="10" x="64.813" y="16.438" fill="#81818B" fill-opacity=".2" rx="5"/><rect width="10" height="10" x="80.813" y="16.438" fill="#81818B" fill-opacity=".2" rx="5"/><rect width="10" height="10" x="96.813" y="16.438" fill="#81818B" fill-opacity=".2" rx="5"/><rect width="10" height="10" x="112.812" y="16.438" fill="#81818B" fill-opacity=".2" rx="5"/><rect width="10" height="10" x=".813" y="32.438" fill="#81818B" fill-opacity=".2" rx="5"/><rect width="10" height="10" x="16.813" y="32.438" fill="#81818B" fill-opacity=".2" rx="5"/><rect width="10" height="10" x="32.813" y="32.438" fill="#81818B" fill-opacity=".2" rx="5"/><rect width="10" height="10" x="48.813" y="32.438" fill="#81818B" fill-opacity=".2" rx="5"/><rect width="10" height="10" x="64.813" y="32.438" fill="#81818B" fill-opacity=".2" rx="5"/><rect width="10" height="10" x="80.813" y="32.438" fill="#81818B" fill-opacity=".2" rx="5"/><rect width="10" height="10" x="96.813" y="32.438" fill="#81818B" fill-opacity=".2" rx="5"/><rect width="10" height="10" x="112.812" y="32.438" fill="#81818B" fill-opacity=".2" rx="5"/><rect width="10" height="10" x=".813" y="48.438" fill="#81818B" fill-opacity=".2" rx="5"/><rect width="10" height="10" x="16.813" y="48.438" fill="#81818B" fill-opacity=".2" rx="5"/><rect width="10" height="10" x="32.813" y="48.438" fill="#81818B" fill-opacity=".2" rx="5"/><rect width="10" height="10" x="48.813" y="48.438" fill="#81818B" fill-opacity=".2" rx="5"/><rect width="10" height="10" x="64.813" y="48.438" fill="#81818B" fill-opacity=".2" rx="5"/><rect width="10" height="10" x="80.813" y="48.438" fill="#81818B" fill-opacity=".2" rx="5"/><rect width="10" height="10" x="96.813" y="48.438" fill="#81818B" fill-opacity=".2" rx="5"/><rect width="10" height="10" x="112.812" y="48.438" fill="#81818B" fill-opacity=".2" rx="5"/><rect width="10" height="10" x=".813" y="64.438" fill="#81818B" fill-opacity=".2" rx="5"/><rect width="10" height="10" x="16.813" y="64.438" fill="#81818B" fill-opacity=".2" rx="5"/><rect width="10" height="10" x="32.813" y="64.438" fill="#81818B" fill-opacity=".2" rx="5"/><rect width="10" height="10" x="48.813" y="64.438" fill="#81818B" fill-opacity=".2" rx="5"/><rect width="10" height="10" x="64.813" y="64.438" fill="#81818B" fill-opacity=".2" rx="5"/><rect width="10" height="10" x="80.813" y="64.438" fill="#81818B" fill-opacity=".2" rx="5"/><rect width="10" height="10" x="96.813" y="64.438" fill="#81818B" fill-opacity=".2" rx="5"/><rect width="10" height="10" x="112.812" y="64.438" fill="#81818B" fill-opacity=".2" rx="5"/><rect width="10" height="10" x=".813" y="80.438" fill="#81818B" fill-opacity=".2" rx="5"/><rect width="10" height="10" x="16.813" y="80.438" fill="#81818B" fill-opacity=".2" rx="5"/><rect width="10" height="10" x="32.813" y="80.438" fill="#81818B" fill-opacity=".2" rx="5"/><rect width="10" height="10" x="48.813" y="80.438" fill="#81818B" fill-opacity=".2" rx="5"/><rect width="10" height="10" x="64.813" y="80.438" fill="#81818B" fill-opacity=".2" rx="5"/><rect width="10" height="10" x="80.813" y="80.438" fill="#81818B" fill-opacity=".2" rx="5"/><rect width="10" height="10" x="96.813" y="80.438" fill="#81818B" fill-opacity=".2" rx="5"/><rect width="10" height="10" x="112.812" y="80.438" fill="#81818B" fill-opacity=".2" rx="5"/><rect width="10" height="10" x=".813" y="96.438" fill="#81818B" fill-opacity=".2" rx="5"/><rect width="10" height="10" x="16.813" y="96.438" fill="#81818B" fill-opacity=".2" rx="5"/><rect width="10" height="10" x="32.813" y="96.438" fill="#81818B" fill-opacity=".2" rx="5"/><rect width="10" height="10" x="48.813" y="96.438" fill="#81818B" fill-opacity=".2" rx="5"/><rect width="10" height="10" x="64.813" y="96.438" fill="#81818B" fill-opacity=".2" rx="5"/><rect width="10" height="10" x="80.813" y="96.438" fill="#81818B" fill-opacity=".2" rx="5"/><rect width="10" height="10" x="96.813" y="96.438" fill="#81818B" fill-opacity=".2" rx="5"/><rect width="10" height="10" x="112.812" y="96.438" fill="#81818B" fill-opacity=".2" rx="5"/><rect width="10" height="10" x=".813" y="112.438" fill="#81818B" fill-opacity=".2" rx="5"/><rect width="10" height="10" x="16.813" y="112.438" fill="#81818B" fill-opacity=".2" rx="5"/><rect width="10" height="10" x="32.813" y="112.438" fill="#81818B" fill-opacity=".2" rx="5"/><rect width="10" height="10" x="48.813" y="112.438" fill="#81818B" fill-opacity=".2" rx="5"/><rect width="10" height="10" x="64.813" y="112.438" fill="#81818B" fill-opacity=".2" rx="5"/><rect width="10" height="10" x="80.813" y="112.438" fill="#81818B" fill-opacity=".2" rx="5"/><rect width="10" height="10" x="96.813" y="112.438" fill="#81818B" fill-opacity=".2" rx="5"/><rect width="10" height="10" x="112.812" y="112.438" fill="#81818B" fill-opacity=".2" rx="5"/></svg>